<?xml version="1.0" encoding="UTF-8" standalone="no"?>
<svg
   xmlns:dc="http://purl.org/dc/elements/1.1/"
   xmlns:cc="http://creativecommons.org/ns#"
   xmlns:rdf="http://www.w3.org/1999/02/22-rdf-syntax-ns#"
   xmlns:svg="http://www.w3.org/2000/svg"
   xmlns="http://www.w3.org/2000/svg"
   id="svg897"
   version="1.1"
   viewBox="0 0 52.916665 52.916668"
   height="200"
   width="200">
  <defs
     id="defs891" />
  <metadata
     id="metadata894">
    <rdf:RDF>
      <cc:Work
         rdf:about="">
        <dc:format>image/svg+xml</dc:format>
        <dc:type
           rdf:resource="http://purl.org/dc/dcmitype/StillImage" />
        <dc:title></dc:title>
      </cc:Work>
    </rdf:RDF>
  </metadata>
  <g
     transform="translate(0,-244.08332)"
     id="layer1">
    <rect
       y="243.95103"
       x="0.13229166"
       height="52.916668"
       width="52.916668"
       id="rect1442"
       style="fill:#00c2cb;fill-opacity:1;stroke:none;stroke-width:0.26458332;stroke-miterlimit:4;stroke-dasharray:none;stroke-opacity:1" />
    <g
       id="g1460"
       transform="matrix(0.1102223,0,0,-0.11022311,-57.857247,322.12168)">
      <g
         id="g78"
         transform="translate(930.4678,681)">
        <path
           d="M 0,0 V -99"
           style="fill:#ffffff;fill-opacity:1;fill-rule:nonzero;stroke:#ffffff;stroke-width:22;stroke-linecap:butt;stroke-linejoin:miter;stroke-miterlimit:10;stroke-dasharray:none;stroke-opacity:1"
           id="path80" />
      </g>
      <g
         id="g82"
         transform="translate(981,631.9541)">
        <path
           d="M 0,0 H -102"
           style="fill:#ffffff;fill-opacity:1;fill-rule:nonzero;stroke:#ffffff;stroke-width:22;stroke-linecap:butt;stroke-linejoin:miter;stroke-miterlimit:10;stroke-dasharray:none;stroke-opacity:1"
           id="path84" />
      </g>
    </g>
    <g
       transform="translate(2.6458333,-56.085685)"
       id="g1609">
      <g
         id="g22"
         transform="matrix(0.09133326,0,0,-0.09133326,1.6452867,335.98819)">
        <path
           d="m 0,0 11.586,-0.021 c 9.394,-0.019 15.231,3.535 15.25,13.214 0.017,8.806 -6.015,12.453 -14.661,12.47 L 0.048,25.686 Z m -17.558,39.981 31.829,-0.06 C 30.527,39.891 44.755,31.36 44.722,13.515 44.688,-4.804 31.444,-14.224 12.67,-14.188 l -12.697,0.023 -0.064,-34.004 -17.633,0.033 z"
           style="fill:#ffffff;fill-opacity:1;fill-rule:nonzero;stroke:none"
           id="path24" />
      </g>
      <g
         id="g26"
         transform="matrix(0.09133326,0,0,-0.09133326,8.3114088,336.3264)">
        <path
           d="m 0,0 c -0.033,-17.585 6.816,-31.609 20.498,-31.635 15.028,-0.028 20.47,12.985 20.504,31.413 0.031,16.228 -5.294,30.548 -20.69,30.577 C 6.03,30.382 0.032,16.948 0,0 m 59.08,-0.239 c -0.048,-25.365 -12.105,-45.74 -39.336,-45.688 -26.657,0.05 -38.01,20.983 -37.962,46.029 0.04,21.701 11.734,44.596 39.348,44.544 26.132,-0.048 37.994,-21.178 37.95,-44.885"
           style="fill:#ffffff;fill-opacity:1;fill-rule:nonzero;stroke:none"
           id="path28" />
      </g>
      <g
         id="g30"
         transform="matrix(0.09133326,0,0,-0.09133326,16.169457,338.03862)">
        <path
           d="m 0,0 c 1.226,-8.004 6.331,-13.234 15.543,-13.252 9.849,-0.019 13.29,4.337 13.302,10.569 C 28.86,5.32 24.119,8.615 11.634,12.26 -8.381,17.956 -15.209,25.294 -15.185,38.026 -15.154,54.364 -2.311,63.261 14.153,63.229 34.891,63.19 43.645,52.181 44.612,38.017 l -17.3,0.033 C 26.255,44.552 23.163,49.5 13.971,49.518 6.223,49.532 2.397,45.873 2.385,39.753 2.373,33.18 6.704,31.305 18.946,27.655 40.998,21.04 46.773,12.037 46.75,-0.602 46.722,-14.969 37.34,-27.216 14.709,-27.173 c -18.865,0.035 -31.098,9.75 -32.12,27.206 z"
           style="fill:#ffffff;fill-opacity:1;fill-rule:nonzero;stroke:none"
           id="path32" />
      </g>
      <g
         id="g34"
         transform="matrix(0.09133326,0,0,-0.09133326,23.367084,332.38052)">
        <path
           d="m 0,0 -0.166,-88.117 -17.618,0.033 0.166,88.117 z"
           style="fill:#ffffff;fill-opacity:1;fill-rule:nonzero;stroke:none"
           id="path36" />
      </g>
      <g
         id="g38"
         transform="matrix(0.09133326,0,0,-0.09133326,26.586938,333.74374)">
        <path
           d="m 0,0 -23.425,0.044 0.029,14.859 64.608,-0.121 -0.028,-14.859 -23.44,0.044 -0.139,-73.258 -17.743,0.033 z"
           style="fill:#ffffff;fill-opacity:1;fill-rule:nonzero;stroke:none"
           id="path40" />
      </g>
      <g
         id="g42"
         transform="matrix(0.09133326,0,0,-0.09133326,32.986684,332.39862)">
        <path
           d="m 0,0 -0.166,-88.117 -17.617,0.033 0.166,88.117 z"
           style="fill:#ffffff;fill-opacity:1;fill-rule:nonzero;stroke:none"
           id="path44" />
      </g>
      <g
         id="g46"
         transform="matrix(0.09133326,0,0,-0.09133326,36.46903,340.45325)">
        <path
           d="M 0,0 -27.684,88.17 -8.784,88.134 2.612,48.059 C 5.975,36.339 9.127,25.157 10.7,16.841 l 0.253,-0.001 c 1.78,7.832 5.274,19.742 8.613,30.749 L 31.826,88.058 49.838,88.023 21.004,-0.039 Z"
           style="fill:#ffffff;fill-opacity:1;fill-rule:nonzero;stroke:none"
           id="path48" />
      </g>
      <g
         id="g50"
         transform="matrix(0.09133326,0,0,-0.09133326,46.898776,336.96109)">
        <path
           d="m 0,0 -37.572,0.07 -0.045,-23.718 41.482,-0.079 -2.146,-14.726 -56.537,0.106 0.166,88.118 L 1.668,49.664 1.64,34.82 -37.507,34.894 -37.544,14.93 0.028,14.859 Z"
           style="fill:#ffffff;fill-opacity:1;fill-rule:nonzero;stroke:none"
           id="path52" />
      </g>
      <g
         id="g54"
         transform="matrix(0.09133326,0,0,-0.09133326,0.01516131,342.2306)">
        <path
           d="M 0,0 55.386,-0.104 55.358,-14.948 17.256,-14.877 17.214,-37.198 53,-37.266 52.973,-51.883 17.187,-51.815 17.118,-88.15 -0.166,-88.117 Z"
           style="fill:#ffffff;fill-opacity:1;fill-rule:nonzero;stroke:none"
           id="path56" />
      </g>
      <g
         id="g58"
         transform="matrix(0.09133326,0,0,-0.09133326,7.7689436,342.24522)">
        <path
           d="m 0,0 -0.105,-56.049 c -0.02,-9.941 2.651,-19.051 15.985,-19.075 13.222,-0.025 15.659,8.673 15.679,19.031 L 31.664,-0.06 49.438,-0.093 49.332,-56.528 C 49.297,-74.98 41.59,-89.481 15.49,-89.433 c -25.673,0.049 -33.281,14.102 -33.245,32.909 l 0.107,56.557 z"
           style="fill:#ffffff;fill-opacity:1;fill-rule:nonzero;stroke:none"
           id="path60" />
      </g>
      <g
         id="g62"
         transform="matrix(0.09133326,0,0,-0.09133326,15.397234,343.61675)">
        <path
           d="m 0,0 -23.425,0.044 0.029,14.859 64.608,-0.121 -0.028,-14.859 -23.44,0.044 -0.138,-73.258 -17.744,0.033 z"
           style="fill:#ffffff;fill-opacity:1;fill-rule:nonzero;stroke:none"
           id="path64" />
      </g>
      <g
         id="g66"
         transform="matrix(0.09133326,0,0,-0.09133326,21.777985,342.27162)">
        <path
           d="m 0,0 -0.105,-56.049 c -0.02,-9.941 2.652,-19.05 15.985,-19.075 13.222,-0.025 15.659,8.673 15.678,19.031 L 31.665,-0.06 49.438,-0.093 49.333,-56.527 C 49.297,-74.979 41.59,-89.481 15.49,-89.433 c -25.673,0.049 -33.28,14.102 -33.245,32.909 l 0.107,56.557 z"
           style="fill:#ffffff;fill-opacity:1;fill-rule:nonzero;stroke:none"
           id="path68" />
      </g>
      <g
         id="g70"
         transform="matrix(0.09133326,0,0,-0.09133326,29.572302,345.70696)">
        <path
           d="m 0,0 13.151,-0.024 c 8.373,-0.016 15.274,2.258 15.292,12.005 0.016,8.153 -5.76,11.166 -12.822,11.18 L 0.043,23.19 Z m -0.027,-14.263 -0.069,-36.401 -17.3,0.032 0.167,88.117 35.204,-0.066 C 34.287,37.389 45.933,29.114 45.902,13.533 45.88,1.517 39.654,-4.243 32.424,-7.049 c 8.564,-3.395 11.634,-10.309 11.613,-21.245 l -0.004,-2.29 c -0.014,-7.808 0.415,-15.216 1.113,-20.166 l -16.982,0.032 c -1.239,3.701 -1.592,9.626 -1.571,20.461 l 0.004,2.32 c 0.019,10.086 -3.576,13.631 -14.866,13.653 z"
           style="fill:#ffffff;fill-opacity:1;fill-rule:nonzero;stroke:none"
           id="path72" />
      </g>
      <path
         d="m 40.144571,346.84248 -3.431665,-0.006 -0.004,2.16625 3.788687,0.007 -0.19609,1.34497 -5.16362,-0.01 0.01517,-8.0481 5.143891,0.01 -0.0026,1.35575 -3.575423,-0.007 -0.0035,1.82338 3.431575,0.007 z"
         style="fill:#ffffff;fill-opacity:1;fill-rule:nonzero;stroke:none;stroke-width:0.09133326"
         id="path76" />
    </g>
  </g>
</svg>
